<svg xmlns="http://www.w3.org/2000/svg" viewBox="0 0 120 120" role="img" aria-labelledby="title desc">
	<title id="title">VisaVerse React Badge</title>
	<desc id="desc">Custom React-inspired icon for the VisaVerse frontend</desc>
	<defs>
		<linearGradient id="glow" x1="0%" y1="0%" x2="100%" y2="100%">
			<stop offset="0%" stop-color="#7dd3fc"/>
			<stop offset="50%" stop-color="#38bdf8"/>
			<stop offset="100%" stop-color="#0ea5e9"/>
		</linearGradient>
	</defs>
	<rect width="120" height="120" rx="22" fill="#0b1120"/>
	<circle cx="60" cy="60" r="42" fill="url(#glow)" fill-opacity="0.12" stroke="#38bdf8" stroke-width="2"/>
	<path d="M36 68c0-17 13-32 31-32 7 0 13 2 18 5l7-7c-7-5-16-8-25-8-24 0-44 18-44 42 0 9 3 18 7 25l7-7c-2-5-3-11-3-18z" fill="#7dd3fc" fill-opacity="0.55"/>
	<path d="M84 52c0 17-13 32-31 32-7 0-13-2-18-5l-7 7c7 5 16 8 25 8 24 0 44-18 44-42 0-9-3-18-7-25l-7 7c2 5 3 11 3 18z" fill="#0ea5e9" fill-opacity="0.65"/>
	<circle cx="60" cy="60" r="10" fill="#e0f2fe"/>
	<path d="M53 60c0-4 3-7 7-7s7 3 7 7-3 7-7 7-7-3-7-7z" fill="#0b1120"/>
	<path d="M60 30c1.8 0 3.3 1.5 3.3 3.3v7.4c0 1.8-1.5 3.3-3.3 3.3s-3.3-1.5-3.3-3.3v-7.4c0-1.8 1.5-3.3 3.3-3.3zM60 75c1.8 0 3.3 1.5 3.3 3.3v7.4c0 1.8-1.5 3.3-3.3 3.3s-3.3-1.5-3.3-3.3v-7.4c0-1.8 1.5-3.3 3.3-3.3zM82 60c0-1.8 1.5-3.3 3.3-3.3h7.4c1.8 0 3.3 1.5 3.3 3.3s-1.5 3.3-3.3 3.3h-7.4c-1.8 0-3.3-1.5-3.3-3.3zM23 60c0-1.8 1.5-3.3 3.3-3.3h7.4c1.8 0 3.3 1.5 3.3 3.3s-1.5 3.3-3.3 3.3h-7.4C24.5 63.3 23 61.8 23 60z" fill="#38bdf8"/>
</svg>